<svg width="146" height="33" viewBox="0 0 146 33" fill="none" xmlns="http://www.w3.org/2000/svg">
<path d="M129.518 17.5C129.518 22.7467 125.149 27 119.759 27C114.369 27 110 22.7467 110 17.5C110 12.2533 114.369 8 119.759 8C125.149 8 129.518 12.2533 129.518 17.5Z" fill="#F1F2E6"/>
<path d="M116.814 20.0718C116.814 20.6303 116.347 21.0923 115.76 21.0923C115.173 21.0923 114.706 20.6303 114.706 20.0718C114.706 19.5132 115.173 19.0512 115.76 19.0512C116.347 19.0512 116.814 19.5132 116.814 20.0718Z" stroke="black" stroke-width="0.404221"/>
<path d="M124.783 20.0718C124.783 20.6303 124.316 21.0923 123.729 21.0923C123.142 21.0923 122.675 20.6303 122.675 20.0718C122.675 19.5132 123.142 19.0512 123.729 19.0512C124.316 19.0512 124.783 19.5132 124.783 20.0718Z" stroke="black" stroke-width="0.404221"/>
<rect x="118.142" y="19.861" width="4.61967" height="0.393491" rx="0.187674" fill="black"/>
<path d="M117.463 20.2457C117.567 20.2457 117.651 20.1616 117.651 20.058C117.651 19.9543 117.567 19.8703 117.463 19.8703V20.2457ZM116.958 20.2457H117.463V19.8703H116.958V20.2457Z" fill="black"/>
<path d="M122.675 18.4558H123.079" stroke="black" stroke-width="0.375348" stroke-linecap="round"/>
<mask id="path-7-inside-1_626_139" fill="white">
<rect x="114.157" y="14.9143" width="3.75348" height="2.64201" rx="0.259857"/>
</mask>
<rect x="114.157" y="14.9143" width="3.75348" height="2.64201" rx="0.259857" stroke="black" stroke-width="0.750697" mask="url(#path-7-inside-1_626_139)"/>
<mask id="path-8-inside-2_626_139" fill="white">
<rect x="118.315" y="14.9143" width="3.75348" height="2.64201" rx="0.259857"/>
</mask>
<rect x="118.315" y="14.9143" width="3.75348" height="2.64201" rx="0.259857" stroke="black" stroke-width="0.750697" mask="url(#path-8-inside-2_626_139)"/>
<line x1="116.034" y1="15.2515" x2="116.034" y2="17.2189" stroke="black" stroke-width="0.404221"/>
<path d="M120.365 16.4882C120.365 16.3765 120.275 16.286 120.163 16.286C120.051 16.286 119.961 16.3765 119.961 16.4882H120.365ZM119.961 16.4882V17.247H120.365V16.4882H119.961Z" fill="black"/>
<path d="M119.961 15.6731C119.961 15.7847 120.051 15.8752 120.163 15.8752C120.275 15.8752 120.365 15.7847 120.365 15.6731H119.961ZM120.365 15.6731V14.9142H119.961V15.6731H120.365Z" fill="black"/>
<path d="M125.562 15.0688H122.891C122.814 15.0688 122.663 15.1251 122.675 15.3499C122.686 15.5748 122.68 16.6943 122.689 17.233C122.675 17.4626 123.189 17.9779 125.245 18.1465C125.413 18.1559 125.773 18.1718 125.865 18.1606" stroke="black" stroke-width="0.375348"/>
<path d="M124.605 20.0578H125.447C125.75 20.0578 125.995 19.8122 125.995 19.5092V17.2042L125.486 14.7164C125.439 14.4881 125.238 14.3241 125.005 14.3241H114.013C113.726 14.3241 113.493 14.5568 113.493 14.8438V19.6247C113.493 19.8639 113.687 20.0578 113.926 20.0578H114.603" stroke="black" stroke-width="0.404221"/>
<path d="M116.814 20.0718C116.814 20.6303 116.347 21.0923 115.76 21.0923C115.173 21.0923 114.706 20.6303 114.706 20.0718C114.706 19.5132 115.173 19.0512 115.76 19.0512C116.347 19.0512 116.814 19.5132 116.814 20.0718Z" stroke="black" stroke-width="0.404221"/>
<path d="M124.783 20.0718C124.783 20.6303 124.316 21.0923 123.729 21.0923C123.142 21.0923 122.675 20.6303 122.675 20.0718C122.675 19.5132 123.142 19.0512 123.729 19.0512C124.316 19.0512 124.783 19.5132 124.783 20.0718Z" stroke="black" stroke-width="0.404221"/>
<rect x="118.142" y="19.861" width="4.61967" height="0.393491" rx="0.187674" fill="black"/>
<path d="M117.463 20.2457C117.567 20.2457 117.651 20.1616 117.651 20.058C117.651 19.9543 117.567 19.8703 117.463 19.8703V20.2457ZM116.958 20.2457H117.463V19.8703H116.958V20.2457Z" fill="black"/>
<path d="M122.675 18.4558H123.079" stroke="black" stroke-width="0.375348" stroke-linecap="round"/>
<mask id="path-19-inside-3_626_139" fill="white">
<rect x="114.157" y="14.9143" width="3.75348" height="2.64201" rx="0.259857"/>
</mask>
<rect x="114.157" y="14.9143" width="3.75348" height="2.64201" rx="0.259857" stroke="black" stroke-width="0.750697" mask="url(#path-19-inside-3_626_139)"/>
<mask id="path-20-inside-4_626_139" fill="white">
<rect x="118.315" y="14.9143" width="3.75348" height="2.64201" rx="0.259857"/>
</mask>
<rect x="118.315" y="14.9143" width="3.75348" height="2.64201" rx="0.259857" stroke="black" stroke-width="0.750697" mask="url(#path-20-inside-4_626_139)"/>
<line x1="116.034" y1="15.2515" x2="116.034" y2="17.2189" stroke="black" stroke-width="0.404221"/>
<path d="M120.365 16.4882C120.365 16.3765 120.275 16.286 120.163 16.286C120.051 16.286 119.961 16.3765 119.961 16.4882H120.365ZM119.961 16.4882V17.247H120.365V16.4882H119.961Z" fill="black"/>
<path d="M119.961 15.6731C119.961 15.7847 120.051 15.8752 120.163 15.8752C120.275 15.8752 120.365 15.7847 120.365 15.6731H119.961ZM120.365 15.6731V14.9142H119.961V15.6731H120.365Z" fill="black"/>
<path d="M125.562 15.0688H122.891C122.814 15.0688 122.663 15.1251 122.675 15.3499C122.686 15.5748 122.68 16.6943 122.689 17.233C122.675 17.4626 123.189 17.9779 125.245 18.1465C125.413 18.1559 125.773 18.1718 125.865 18.1606" stroke="black" stroke-width="0.375348"/>
<path d="M124.605 20.0578H125.447C125.75 20.0578 125.995 19.8122 125.995 19.5092V17.2042L125.486 14.7164C125.439 14.4881 125.238 14.3241 125.005 14.3241H114.013C113.726 14.3241 113.493 14.5568 113.493 14.8438V19.6247C113.493 19.8639 113.687 20.0578 113.926 20.0578H114.603" stroke="black" stroke-width="0.5"/>
<path d="M20.0927 21.6006H15.3137L11.6047 25.0911H20.5206L20.0927 21.6006Z" fill="#F1F2E6" stroke="#23262B" stroke-width="0.141522"/>
<path d="M20.2901 28.0448H24.7556C24.9161 28.0448 25.0444 27.9115 25.0385 27.7512L24.3519 9.32073C24.3463 9.16861 24.2213 9.04822 24.0691 9.04822H22.0634C21.4436 9.04822 20.8547 9.31916 20.4514 9.78991L5.21203 27.5776C5.05472 27.7612 5.18519 28.0448 5.42698 28.0448H10.1537C10.2321 28.0448 10.3069 28.0123 10.3605 27.9551L19.5173 18.164C19.6927 17.9765 20.0071 18.1006 20.0071 18.3573V27.7617C20.0071 27.9181 20.1338 28.0448 20.2901 28.0448Z" fill="#F1F2E6" stroke="#23262B" stroke-width="0.141522"/>
<path d="M0.164006 9.11536H4.91612C4.9882 9.11536 5.04876 9.16952 5.05677 9.24115L6.07083 18.3108C6.08474 18.4351 6.24135 18.4816 6.32081 18.3849L13.8974 9.16701C13.9243 9.13431 13.9644 9.11536 14.0068 9.11536H19.4611C19.7061 9.11536 19.8354 9.40542 19.6716 9.58761L3.04215 28.0894C2.96208 28.1785 2.81444 28.134 2.7969 28.0155L0.0240086 9.2776C0.0113592 9.19212 0.0775962 9.11536 0.164006 9.11536Z" fill="#F1F2E6"/>
<path d="M34.1257 18.0429L34.1257 9.80684C34.1257 9.64907 34.2571 9.51929 34.4167 9.51929L38.5646 9.51929L38.5647 28.0894L37.8694 28.0894C37.3232 28.0894 36.8103 27.8509 36.4679 27.4378L30.5604 20.3088C30.3942 20.1082 30.0605 20.227 30.0538 20.4891L29.861 28.0894L25.7759 28.0894L25.2098 9.26115C25.7089 9.43081 26.1575 9.71607 26.5186 10.0934L34.1257 18.0429Z" fill="#F1F2E6" stroke="#23262B" stroke-width="0.15282"/>
<path d="M47.7891 28.2764C46.5914 28.2764 45.4951 28.129 44.5001 27.8342C43.5235 27.5394 42.6483 27.1063 41.8744 26.5351C41.119 25.9639 40.4372 25.273 39.8292 24.4622L42.4272 21.5049C43.3301 22.7579 44.2237 23.6147 45.1082 24.0753C46.011 24.5175 46.9876 24.7386 48.0379 24.7386C48.6091 24.7386 49.1158 24.6649 49.558 24.5175C50.0186 24.3517 50.3779 24.1214 50.6359 23.8266C50.8939 23.5317 51.0228 23.1817 51.0228 22.7763C51.0228 22.4815 50.9583 22.2143 50.8294 21.9748C50.7004 21.7168 50.5161 21.4957 50.2766 21.3114C50.0371 21.1088 49.7515 20.9337 49.4198 20.7863C49.0881 20.6205 48.7196 20.4823 48.3142 20.3717C47.9089 20.2427 47.4667 20.1414 46.9876 20.0677C45.9557 19.8282 45.0529 19.5426 44.279 19.2109C43.5051 18.8608 42.8602 18.437 42.3443 17.9395C41.8284 17.4236 41.4414 16.8432 41.1835 16.1983C40.9439 15.5534 40.8242 14.8256 40.8242 14.0148C40.8242 13.1857 41.0084 12.421 41.3769 11.7208C41.7454 11.0022 42.2522 10.3849 42.8971 9.86902C43.5604 9.35309 44.3158 8.95694 45.1634 8.68055C46.0294 8.40417 46.9415 8.26597 47.8997 8.26597C49.0789 8.26597 50.1108 8.40417 50.9952 8.68055C51.8796 8.93851 52.6443 9.31624 53.2892 9.81374C53.9525 10.3112 54.5053 10.9193 54.9475 11.6379L52.3219 14.1807C51.9349 13.6647 51.5111 13.2317 51.0505 12.8816C50.6083 12.5315 50.12 12.2736 49.5856 12.1078C49.0697 11.9235 48.5353 11.8314 47.9826 11.8314C47.3745 11.8314 46.8494 11.9143 46.4072 12.0801C45.965 12.2275 45.6149 12.4486 45.3569 12.7434C45.1174 13.0383 44.9976 13.3976 44.9976 13.8214C44.9976 14.153 45.0805 14.4478 45.2463 14.7058C45.4122 14.9637 45.6517 15.1941 45.965 15.3968C46.2782 15.581 46.6559 15.7468 47.0981 15.8943C47.5404 16.0417 48.0286 16.1706 48.563 16.2812C49.5764 16.4839 50.4885 16.7511 51.2992 17.0827C52.11 17.4144 52.8009 17.8197 53.3721 18.2988C53.9617 18.7595 54.4132 19.3122 54.7264 19.9571C55.0397 20.5836 55.1963 21.293 55.1963 22.0853C55.1963 23.3936 54.883 24.5083 54.2566 25.4296C53.6301 26.3509 52.7641 27.0603 51.6585 27.5578C50.553 28.0369 49.2632 28.2764 47.7891 28.2764Z" fill="#F1F2E6"/>
<path d="M65.5608 28.2653C64.1987 28.2653 62.9427 28.0354 61.7929 27.5754C60.6607 27.0978 59.6701 26.4345 58.821 25.5854C57.9896 24.7186 57.3439 23.7014 56.884 22.5339C56.424 21.3487 56.1941 20.0573 56.1941 18.6598C56.1941 17.2977 56.4329 16.0417 56.9105 14.8919C57.3881 13.7244 58.0603 12.7161 58.9271 11.867C59.7939 11.0002 60.8111 10.328 61.9786 9.85034C63.1461 9.37271 64.4109 9.1339 65.773 9.1339C66.6575 9.1339 67.5243 9.25773 68.3734 9.50539C69.2402 9.73535 70.0274 10.0803 70.735 10.5402C71.4603 11.0002 72.0794 11.5486 72.5924 12.1854L70.0982 14.945C69.6736 14.5204 69.2314 14.1578 68.7715 13.8571C68.3292 13.5386 67.8516 13.2998 67.3386 13.1406C66.8433 12.9637 66.3126 12.8753 65.7465 12.8753C64.9859 12.8753 64.2694 13.0168 63.5972 13.2998C62.9427 13.5829 62.3678 13.9809 61.8725 14.4939C61.3771 14.9892 60.9791 15.5995 60.6784 16.3248C60.3954 17.0324 60.2539 17.8196 60.2539 18.6864C60.2539 19.5708 60.3954 20.3757 60.6784 21.101C60.9614 21.8086 61.3595 22.4189 61.8725 22.9319C62.3855 23.4272 62.9958 23.8164 63.7033 24.0994C64.4286 24.3648 65.2247 24.4974 66.0915 24.4974C66.6575 24.4974 67.2059 24.4178 67.7366 24.2586C68.2673 24.0994 68.7538 23.8783 69.196 23.5953C69.6559 23.3122 70.0628 22.985 70.4166 22.6135L72.3536 25.718C71.9291 26.1956 71.3542 26.629 70.6289 27.0182C69.9213 27.4074 69.1253 27.717 68.2408 27.9469C67.3563 28.1592 66.4629 28.2653 65.5608 28.2653Z" fill="#F1F2E6"/>
<path d="M131.427 27V8.33459H135.426V23.4002H143.879V27H131.427Z" fill="#F1F2E6"/>
<path d="M100.369 27.2586C99.0417 27.2586 97.8177 27.0259 96.6972 26.5604C95.5767 26.095 94.5941 25.4485 93.7494 24.6211C92.922 23.7764 92.2841 22.7851 91.8359 21.6474C91.3877 20.4924 91.1636 19.2426 91.1636 17.898C91.1636 16.5361 91.3877 15.2949 91.8359 14.1744C92.2841 13.0367 92.922 12.0454 93.7494 11.2007C94.5941 10.356 95.5767 9.70097 96.6972 9.23552C97.8177 8.77008 99.0417 8.53735 100.369 8.53735C101.714 8.53735 102.938 8.77008 104.041 9.23552C105.161 9.70097 106.135 10.356 106.963 11.2007C107.808 12.0454 108.454 13.0367 108.902 14.1744C109.35 15.3122 109.575 16.5533 109.575 17.898C109.575 19.2426 109.35 20.4838 108.902 21.6215C108.454 22.7593 107.808 23.7505 106.963 24.5952C106.135 25.4399 105.161 26.095 104.041 26.5604C102.938 27.0259 101.714 27.2586 100.369 27.2586ZM100.369 23.5867C101.128 23.5867 101.826 23.4488 102.464 23.173C103.119 22.8972 103.679 22.5007 104.144 21.9835C104.61 21.4664 104.972 20.863 105.23 20.1735C105.506 19.4839 105.644 18.7254 105.644 17.898C105.644 17.0705 105.506 16.312 105.23 15.6225C104.972 14.9329 104.61 14.3382 104.144 13.8383C103.679 13.3211 103.119 12.9246 102.464 12.6488C101.826 12.3557 101.128 12.2092 100.369 12.2092C99.6106 12.2092 98.9124 12.3557 98.2746 12.6488C97.6367 12.9246 97.0765 13.3211 96.5938 13.8383C96.1111 14.3382 95.7405 14.9329 95.4819 15.6225C95.2406 16.312 95.1199 17.0705 95.1199 17.898C95.1199 18.7254 95.2406 19.4839 95.4819 20.1735C95.7405 20.863 96.1111 21.4664 96.5938 21.9835C97.0765 22.5007 97.6367 22.8972 98.2746 23.173C98.9124 23.4488 99.6106 23.5867 100.369 23.5867Z" fill="#F1F2E6"/>
<path d="M85.8027 28V9.83854H89.6944V28H85.8027ZM74.361 28V9.83854H78.2527V28H74.361ZM75.9177 20.7095L75.9436 17.181H87.8005V20.7095H75.9177Z" fill="#F1F2E6"/>
</svg>
